<svg width="100" height="100" viewBox="0 0 100 100" fill="none" xmlns="http://www.w3.org/2000/svg">
<g clip-path="url(#clip0_9_4)">
<path d="M45 2.88675C48.094 1.10042 51.906 1.10042 55 2.88675L88.3013 22.1132C91.3953 23.8996 93.3013 27.2008 93.3013 30.7735V69.2265C93.3013 72.7992 91.3953 76.1004 88.3013 77.8868L55 97.1132C51.906 98.8996 48.094 98.8996 45 97.1132L11.6987 77.8868C8.60472 76.1004 6.69873 72.7992 6.69873 69.2265V30.7735C6.69873 27.2008 8.60472 23.8996 11.6987 22.1132L45 2.88675Z" fill="url(#paint0_linear_9_4)"/>
<path d="M46.0187 74.5441L40.1098 72.8295C39.4899 72.6552 39.1412 72.0062 39.3155 71.3862L52.5379 25.8391C52.7123 25.2192 53.3613 24.8705 53.9813 25.0448L59.8902 26.7594C60.5101 26.9337 60.8588 27.5828 60.6845 28.2027L47.4621 73.7498C47.278 74.3697 46.6387 74.7281 46.0187 74.5441ZM34.9759 63.6756L39.1896 59.1809C39.6352 58.7063 39.6061 57.9507 39.1121 57.5148L30.3359 49.7945L39.1121 42.0741C39.6061 41.6382 39.6449 40.8827 39.1896 40.408L34.9759 35.9134C34.54 35.4484 33.8038 35.4193 33.3291 35.8649L19.3705 48.942C18.8765 49.3973 18.8765 50.1819 19.3705 50.6372L33.3291 63.724C33.8038 64.1696 34.54 64.1502 34.9759 63.6756ZM66.6709 63.7337L80.6295 50.6469C81.1235 50.1916 81.1235 49.407 80.6295 48.9517L66.6709 35.8552C66.2059 35.4193 65.4697 35.4387 65.0241 35.9037L60.8104 40.3983C60.3648 40.873 60.3939 41.6285 60.8879 42.0644L69.6641 49.7945L60.8879 57.5148C60.3939 57.9507 60.3551 58.7063 60.8104 59.1809L65.0241 63.6756C65.46 64.1502 66.1962 64.1696 66.6709 63.7337Z" fill="white"/>
</g>
<defs>
<linearGradient id="paint0_linear_9_4" x1="0" y1="0" x2="100" y2="100" gradientUnits="userSpaceOnUse">
<stop stop-color="#6BE987"/>
<stop offset="1" stop-color="#3FA8E4"/>
</linearGradient>
<clipPath id="clip0_9_4">
<rect width="100" height="100" fill="white"/>
</clipPath>
</defs>
</svg>
