<svg width="100" height="100" viewBox="0 0 100 100" fill="none" xmlns="http://www.w3.org/2000/svg">
<g clip-path="url(#clip0_10_96)">
<path d="M45 2.88675C48.094 1.10042 51.906 1.10042 55 2.88675L88.3013 22.1132C91.3953 23.8996 93.3013 27.2008 93.3013 30.7735V69.2265C93.3013 72.7992 91.3953 76.1004 88.3013 77.8868L55 97.1132C51.906 98.8996 48.094 98.8996 45 97.1132L11.6987 77.8868C8.60472 76.1004 6.69873 72.7992 6.69873 69.2265V30.7735C6.69873 27.2008 8.60472 23.8996 11.6987 22.1132L45 2.88675Z" fill="url(#paint0_linear_10_96)"/>
<path d="M71.88 32.0008V36.3763C71.88 40.2323 62.2767 43.3771 50.44 43.3771C38.6033 43.3771 29 40.2323 29 36.3763V32.0008C29 28.1449 38.6033 25 50.44 25C62.2767 25 71.88 28.1449 71.88 32.0008ZM71.88 41.8457V51.6906C71.88 55.5465 62.2767 58.6914 50.44 58.6914C38.6033 58.6914 29 55.5465 29 51.6906V41.8457C33.6063 45.018 42.0371 46.4947 50.44 46.4947C58.8429 46.4947 67.2737 45.018 71.88 41.8457ZM71.88 57.16V67.0049C71.88 70.8608 62.2767 74.0057 50.44 74.0057C38.6033 74.0057 29 70.8608 29 67.0049V57.16C33.6063 60.3323 42.0371 61.809 50.44 61.809C58.8429 61.809 67.2737 60.3323 71.88 57.16Z" fill="white"/>
</g>
<defs>
<linearGradient id="paint0_linear_10_96" x1="0" y1="0" x2="100" y2="100" gradientUnits="userSpaceOnUse">
<stop stop-color="#6BE987"/>
<stop offset="1" stop-color="#3FA8E4"/>
</linearGradient>
<clipPath id="clip0_10_96">
<rect width="100" height="100" fill="white"/>
</clipPath>
</defs>
</svg>
