<svg width="100" height="100" viewBox="0 0 100 100" fill="none" xmlns="http://www.w3.org/2000/svg">
<g clip-path="url(#clip0_10_90)">
<path d="M45 2.88675C48.094 1.10042 51.906 1.10042 55 2.88675L88.3013 22.1132C91.3953 23.8996 93.3013 27.2008 93.3013 30.7735V69.2265C93.3013 72.7992 91.3953 76.1004 88.3013 77.8868L55 97.1132C51.906 98.8996 48.094 98.8996 45 97.1132L11.6987 77.8868C8.60472 76.1004 6.69873 72.7992 6.69873 69.2265V30.7735C6.69873 27.2008 8.60472 23.8996 11.6987 22.1132L45 2.88675Z" fill="url(#paint0_linear_10_90)"/>
<path d="M50.5 34.6538C67.3722 34.6538 80.3463 41.7609 80.3463 49.567C80.3463 57.3731 67.3623 64.4803 50.5 64.4803C33.6278 64.4803 20.6537 57.3731 20.6537 49.567C20.6537 41.7609 33.6377 34.6538 50.5 34.6538ZM50.5 33C33.1061 33 19 40.4123 19 49.567C19 58.7217 33.1061 66.1341 50.5 66.1341C67.8939 66.1341 82 58.7217 82 49.567C82 40.4123 67.8939 33 50.5 33ZM40.4791 48.2381C39.7014 52.2249 36.955 51.8114 33.5786 51.8114L34.9272 44.8617C38.6678 44.8617 41.2075 44.4581 40.4791 48.2381ZM28.5878 58.8497H32.2005L33.0569 54.4397C37.1027 54.4397 39.6128 54.735 41.9359 52.5595C44.5052 50.197 45.1745 45.9938 43.3436 43.8872C42.3888 42.7847 40.8531 42.2433 38.7663 42.2433H31.8067L28.5878 58.8497ZM46.8677 37.8234H50.4606L49.6042 42.2334C52.705 42.2334 55.5794 42.007 56.9673 43.2867C58.4242 44.6255 57.7253 46.3383 56.1503 54.42H52.5081C54.0241 46.6041 54.3095 45.9544 53.7583 45.3638C53.2267 44.7928 52.0159 44.9109 49.0923 44.9109L47.2417 54.42H43.6488L46.8677 37.8234ZM68.7109 48.2381C67.9234 52.2839 65.0983 51.8114 61.8105 51.8114L63.1591 44.8617C66.9194 44.8617 69.4394 44.4581 68.7109 48.2381ZM56.8197 58.8497H60.4422L61.2986 54.4397C65.5511 54.4397 67.9038 54.6858 70.1777 52.5595C72.7469 50.197 73.4163 45.9938 71.5853 43.8872C70.6305 42.7847 69.0948 42.2433 67.008 42.2433H60.0484L56.8197 58.8497Z" fill="white"/>
</g>
<defs>
<linearGradient id="paint0_linear_10_90" x1="0" y1="0" x2="100" y2="100" gradientUnits="userSpaceOnUse">
<stop stop-color="#6BE987"/>
<stop offset="1" stop-color="#3FA8E4"/>
</linearGradient>
<clipPath id="clip0_10_90">
<rect width="100" height="100" fill="white"/>
</clipPath>
</defs>
</svg>
