<svg width="100" height="100" viewBox="0 0 100 100" fill="none" xmlns="http://www.w3.org/2000/svg">
<g clip-path="url(#clip0_10_98)">
<path d="M45 2.88675C48.094 1.10042 51.906 1.10042 55 2.88675L88.3013 22.1132C91.3953 23.8996 93.3013 27.2008 93.3013 30.7735V69.2265C93.3013 72.7992 91.3953 76.1004 88.3013 77.8868L55 97.1132C51.906 98.8996 48.094 98.8996 45 97.1132L11.6987 77.8868C8.60472 76.1004 6.69873 72.7992 6.69873 69.2265V30.7735C6.69873 27.2008 8.60472 23.8996 11.6987 22.1132L45 2.88675Z" fill="url(#paint0_linear_10_98)"/>
<path d="M49.0529 59.9202C49.029 59.968 49.0051 60.0063 49.0529 59.9202ZM68.9056 52.9873C67.3029 52.9868 65.7215 53.3549 64.2837 54.0631C63.8136 53.1148 63.3275 52.286 63.2478 51.6645C63.1521 50.9393 63.0485 50.509 63.1601 49.6483C63.2717 48.7877 63.7737 47.5685 63.7657 47.4808C63.7578 47.3932 63.6542 46.9549 62.6262 46.9469C61.5982 46.9389 60.7137 47.1461 60.6109 47.4171C60.4293 47.9122 60.2881 48.4212 60.1885 48.9391C60.0052 49.8715 58.1334 53.2025 57.0735 54.9397C56.7229 54.2623 56.428 53.6646 56.3643 53.1865C56.2687 52.4614 56.1651 52.031 56.2766 51.1704C56.3882 50.3098 56.8902 49.0905 56.8823 49.0029C56.8743 48.9152 56.7707 48.4769 55.7435 48.469C54.7163 48.461 53.831 48.6682 53.7274 48.9391C53.6238 49.2101 53.5122 49.8476 53.305 50.4612C53.0979 51.0748 50.6044 56.6211 49.9518 58.0634C49.6171 58.7966 49.3302 59.3863 49.123 59.7847C49.0911 59.8485 49.0672 59.8883 49.0513 59.9202C49.0752 59.8803 49.0911 59.8405 49.0911 59.8564C48.9158 60.1991 48.8122 60.3903 48.8122 60.3903V60.3983C48.6767 60.6533 48.5253 60.8844 48.4536 60.8844C48.4058 60.8844 48.3022 60.215 48.4775 59.2986C48.8521 57.3702 49.7366 54.3739 49.7286 54.2703C49.7207 54.2145 49.896 53.6965 49.1469 53.4176C48.4217 53.1546 48.1588 53.5929 48.095 53.5929C48.0313 53.5929 47.9835 53.7523 47.9835 53.7523C47.9835 53.7523 48.7883 50.3735 46.4383 50.3735C44.972 50.3735 42.932 51.9832 41.9295 53.4415C41.3 53.7842 39.9373 54.5253 38.5029 55.3142C37.9531 55.617 37.3873 55.9278 36.8534 56.2226C36.8135 56.1828 36.7817 56.143 36.7418 56.1031C33.8898 53.059 28.6239 50.9074 28.8471 46.8194C28.9268 45.3292 29.4447 41.4165 38.9731 36.6671C46.7825 32.7783 53.0261 33.8461 54.1011 36.2208C55.6471 39.6076 50.763 45.911 42.6531 46.8194C39.562 47.1621 37.9371 45.9667 37.5307 45.5205C37.1084 45.0503 37.0446 45.0264 36.8852 45.1141C36.6223 45.2575 36.7896 45.6719 36.8852 45.9189C37.1243 46.5485 38.1204 47.6641 39.817 48.2219C41.3072 48.708 44.9314 48.979 49.3135 47.2816C54.2366 45.385 58.0688 40.1017 56.9452 35.679C55.8009 31.1845 48.3484 29.7103 41.3016 32.2125C37.1028 33.7027 32.5621 36.0455 29.2957 39.0976C25.4157 42.7314 24.7949 45.895 25.0499 47.2179C25.9576 51.9115 32.4267 54.9715 35.0158 57.2347C34.8883 57.3064 34.7687 57.3702 34.6572 57.4339C33.359 58.0794 28.4271 60.6613 27.1927 63.3866C25.7982 66.4785 27.4238 68.6939 28.4909 68.9967C31.821 69.9211 35.2309 68.2556 37.063 65.5223C38.895 62.789 38.6727 59.2189 37.828 57.5933C37.82 57.5694 37.8041 57.5534 37.7961 57.5295C38.1308 57.3303 38.4734 57.1311 38.8161 56.9319C39.4767 56.5414 40.1222 56.1828 40.688 55.872C40.3692 56.7326 40.1381 57.7686 40.0186 59.2667C39.8752 61.0199 40.6003 63.291 41.5406 64.1835C41.955 64.574 42.4563 64.582 42.767 64.582C43.8667 64.582 44.3608 63.6735 44.9099 62.5898C45.5872 61.2669 46.1849 59.7289 46.1849 59.7289C46.1849 59.7289 45.4358 63.8887 47.4838 63.8887C48.2321 63.8887 48.9812 62.9244 49.3166 62.4304V62.4383C49.3166 62.4383 49.3326 62.4065 49.3724 62.3427C49.4521 62.2232 49.492 62.1515 49.492 62.1515V62.1276C49.7948 61.6096 50.4562 60.4222 51.4515 58.4619C52.7424 55.9278 53.9768 52.7642 53.9768 52.7642C54.0961 53.4596 54.2611 54.1464 54.4709 54.8201C54.694 55.5772 55.1642 56.4059 55.5387 57.2108C55.2359 57.6252 55.0526 57.8642 55.0526 57.8642C55.0532 57.8703 55.056 57.876 55.0606 57.8802C54.8215 58.1989 54.5506 58.5416 54.2717 58.8763C53.2525 60.0875 52.0404 61.4741 51.881 61.8726C51.6898 62.3427 51.7376 62.6933 52.1041 62.9643C52.3751 63.1715 52.8532 63.2033 53.3545 63.1635C54.2709 63.0998 54.9163 62.8766 55.2271 62.7332C55.8001 62.5277 56.3416 62.2434 56.836 61.8885C57.8321 61.1554 58.4378 60.1035 58.382 58.7169C58.3501 57.9519 58.1031 57.1869 57.8003 56.4697C57.8879 56.3422 57.9836 56.2067 58.0712 56.0712C59.6482 53.7682 60.8675 51.2405 60.8675 51.2405C60.9868 51.936 61.1518 52.6228 61.3615 53.2965C61.5528 53.942 61.9265 54.6512 62.2692 55.3445C60.7878 56.5478 59.8714 57.9423 59.5526 58.8587C58.9629 60.5561 59.4251 61.3211 60.2937 61.4964C60.6842 61.5761 61.242 61.3928 61.6564 61.2175C62.2718 61.0125 62.8521 60.7142 63.3769 60.333C64.373 59.5998 65.3364 58.5719 65.2727 57.1773C65.2487 56.5478 65.0734 55.9182 64.8423 55.3126C66.0934 54.7867 67.7183 54.4998 69.7902 54.7388C74.2272 55.2568 75.0958 58.03 74.9285 59.1855C74.7612 60.3409 73.8288 60.9864 73.518 61.1777C73.2072 61.3689 73.1116 61.4406 73.1355 61.5841C73.1754 61.7913 73.3188 61.7833 73.5818 61.7355C73.9483 61.6717 75.9079 60.7952 75.9955 58.6515C76.123 55.9421 73.518 52.9618 68.9033 52.9857L68.9056 52.9873ZM34.705 64.5182C33.2395 66.1199 31.1835 66.7256 30.2998 66.2156C29.3515 65.6641 29.726 63.3069 31.5342 61.6C32.6339 60.5641 34.0515 59.6078 34.9918 59.0181C35.207 58.8906 35.5178 58.6994 35.9003 58.4683C35.964 58.4284 35.9959 58.4125 35.9959 58.4125C36.0676 58.3647 36.1473 58.3248 36.227 58.277C36.8876 60.6995 36.2509 62.8352 34.705 64.5166V64.5182ZM45.4119 57.2347C44.9019 58.4858 43.8269 61.6733 43.1735 61.506C42.6156 61.3625 42.273 58.932 43.0619 56.5414C43.4603 55.3381 44.305 53.9037 44.8071 53.3459C45.6111 52.4454 46.4957 52.1585 46.7029 52.5171C46.9818 52.9873 45.7307 56.4537 45.4119 57.2347ZM54.2573 61.4582C54.0422 61.5697 53.8429 61.6415 53.7473 61.5857C53.6756 61.5458 53.835 61.3944 53.835 61.3944C53.835 61.3944 54.9426 60.2071 55.3809 59.6652C55.6359 59.3464 55.9308 58.9719 56.2487 58.5575C56.2487 58.5974 56.2567 58.6372 56.2567 58.685C56.2463 60.1114 54.8765 61.0757 54.2549 61.4582H54.2573ZM61.0771 59.9042C60.9177 59.7927 60.9416 59.4181 61.4755 58.2547C61.6827 57.8005 62.16 57.0355 62.9896 56.3023C63.0835 56.5799 63.1345 56.8701 63.141 57.163C63.133 58.956 61.85 59.6253 61.0779 59.9042H61.0771Z" fill="white"/>
</g>
<defs>
<linearGradient id="paint0_linear_10_98" x1="0" y1="0" x2="100" y2="100" gradientUnits="userSpaceOnUse">
<stop stop-color="#6BE987"/>
<stop offset="1" stop-color="#3FA8E4"/>
</linearGradient>
<clipPath id="clip0_10_98">
<rect width="100" height="100" fill="white"/>
</clipPath>
</defs>
</svg>
