<svg width="100" height="100" viewBox="0 0 100 100" fill="none" xmlns="http://www.w3.org/2000/svg">
<g clip-path="url(#clip0_10_114)">
<path d="M45 2.88675C48.094 1.10042 51.906 1.10042 55 2.88675L88.3013 22.1132C91.3953 23.8996 93.3013 27.2008 93.3013 30.7735V69.2265C93.3013 72.7992 91.3953 76.1004 88.3013 77.8868L55 97.1132C51.906 98.8996 48.094 98.8996 45 97.1132L11.6987 77.8868C8.60472 76.1004 6.69873 72.7992 6.69873 69.2265V30.7735C6.69873 27.2008 8.60472 23.8996 11.6987 22.1132L45 2.88675Z" fill="url(#paint0_linear_10_114)"/>
<path d="M61.7098 57.8018C63.019 56.9068 64.8359 56.1319 64.8359 56.1319C64.8359 56.1319 59.6658 57.0671 54.5224 57.4946C48.2301 58.0156 41.4702 58.1225 38.0769 57.6682C30.0478 56.5995 42.4855 53.647 42.4855 53.647C42.4855 53.647 37.6627 53.3264 31.7177 56.1853C24.704 59.5786 49.0851 61.1284 61.7098 57.8018ZM50.3008 53.5134C47.7625 47.8089 39.1991 42.7991 50.3008 34.0353C64.1492 23.1072 57.0473 16 57.0473 16C59.9196 27.2888 46.9476 30.7088 42.2584 37.7225C39.0655 42.5186 43.8214 47.662 50.3008 53.5134ZM65.6108 29.974C65.6241 29.974 42.2049 35.8255 53.3868 48.704C56.6866 52.4981 52.5185 55.9182 52.5185 55.9182C52.5185 55.9182 60.8949 51.5897 57.0473 46.1791C53.4536 41.1292 50.7016 38.6176 65.6108 29.974ZM64.7958 66.1114C64.7228 66.2387 64.633 66.3556 64.5287 66.4588C81.6689 61.9566 75.3632 50.5744 67.1738 53.46C66.7315 53.6225 66.3494 53.9162 66.0784 54.3017C66.5566 54.1286 67.048 53.9945 67.5479 53.9009C71.6893 53.0325 77.6343 59.4451 64.7958 66.1114ZM71.0962 74.4344C71.0962 74.4344 73.0333 76.0242 68.972 77.2666C61.2369 79.6045 36.8024 80.3126 30.0157 77.3601C27.5709 76.3047 32.1533 74.8218 33.5961 74.5146C35.0923 74.1939 35.9607 74.2474 35.9607 74.2474C33.2487 72.337 18.4197 78.0014 28.426 79.6179C55.7114 84.0532 78.1767 77.6273 71.0962 74.4344ZM41.2297 68.9036C30.7158 71.8427 47.6289 77.9079 61.0151 72.1766C59.7096 71.6694 58.4493 71.0527 57.2477 70.333C51.276 71.4686 48.5106 71.5488 43.0867 70.9342C38.6112 70.4266 41.2297 68.9036 41.2297 68.9036ZM65.2501 81.889C54.7361 83.8662 41.7641 83.6391 34.0824 82.3699C34.0824 82.3566 35.6588 83.6658 43.7546 84.1868C56.0721 84.975 74.9891 83.746 75.43 77.9212C75.43 77.9212 74.575 80.1255 65.2501 81.889ZM59.4253 63.159C51.5165 64.682 46.9342 64.6419 41.1495 64.0407C36.6741 63.5731 39.5998 61.4089 39.5998 61.4089C28.0038 65.2564 46.0391 69.6116 62.2442 64.869C61.1968 64.4992 60.2372 63.917 59.4253 63.159Z" fill="white"/>
</g>
<defs>
<linearGradient id="paint0_linear_10_114" x1="0" y1="0" x2="100" y2="100" gradientUnits="userSpaceOnUse">
<stop stop-color="#6BE987"/>
<stop offset="1" stop-color="#3FA8E4"/>
</linearGradient>
<clipPath id="clip0_10_114">
<rect width="100" height="100" fill="white"/>
</clipPath>
</defs>
</svg>
