<svg width="100" height="100" viewBox="0 0 100 100" fill="none" xmlns="http://www.w3.org/2000/svg">
<g clip-path="url(#clip0_10_112)">
<path d="M45 2.88675C48.094 1.10042 51.906 1.10042 55 2.88675L88.3013 22.1132C91.3953 23.8996 93.3013 27.2008 93.3013 30.7735V69.2265C93.3013 72.7992 91.3953 76.1004 88.3013 77.8868L55 97.1132C51.906 98.8996 48.094 98.8996 45 97.1132L11.6987 77.8868C8.60472 76.1004 6.69873 72.7992 6.69873 69.2265V30.7735C6.69873 27.2008 8.60472 23.8996 11.6987 22.1132L45 2.88675Z" fill="url(#paint0_linear_10_112)"/>
<path d="M37.8826 37.8869L34.3489 34.3533L34.3639 59.8955L34.4062 61.0893C34.4237 61.6509 34.5279 62.2848 34.7018 62.9417L62.7007 72.8148L69.6996 69.7138L69.7022 69.7053L37.8826 37.8869Z" fill="#00D2B8"/>
<path d="M37.8826 37.8869L34.3489 34.3533L34.3639 59.8955L34.4062 61.0893C34.4237 61.6509 34.5279 62.2848 34.7018 62.9417L62.7007 72.8148L69.6996 69.7138L69.7022 69.7053L37.8826 37.8869Z" fill="white"/>
<path d="M34.7017 62.9367L34.7034 62.9384C34.7017 62.9269 34.6958 62.9141 34.6958 62.9021C34.6958 62.9141 34.6975 62.9252 34.7017 62.9367ZM69.6996 69.7088L62.7007 72.8097L34.7034 62.9384C35.2382 64.9903 36.4222 67.2968 37.6963 68.5581L46.8334 77.6431L67.1497 77.6696L69.7022 69.7002L69.6996 69.7088Z" fill="#55DDCA"/>
<path d="M34.7017 62.9367L34.7034 62.9384C34.7017 62.9269 34.6958 62.9141 34.6958 62.9021C34.6958 62.9141 34.6975 62.9252 34.7017 62.9367ZM69.6996 69.7088L62.7007 72.8097L34.7034 62.9384C35.2382 64.9903 36.4222 67.2968 37.6963 68.5581L46.8334 77.6431L67.1497 77.6696L69.7022 69.7002L69.6996 69.7088Z" fill="#DCDCDC"/>
<path d="M23.4672 50.7904C22.5625 51.7562 23.0118 53.7483 24.4684 55.2159L30.751 61.5506L34.7019 62.9418C34.528 62.2849 34.4238 61.651 34.4063 61.0893L34.364 59.8955L34.3491 34.3533L23.4672 50.7904Z" fill="#0081C6"/>
<path d="M23.4672 50.7904C22.5625 51.7562 23.0118 53.7483 24.4684 55.2159L30.751 61.5506L34.7019 62.9418C34.528 62.2849 34.4238 61.651 34.4063 61.0893L34.364 59.8955L34.3491 34.3533L23.4672 50.7904Z" fill="#CBCBCB"/>
<path d="M62.9306 34.6747C62.2737 34.5069 61.6437 34.4031 61.0726 34.3851L59.8109 34.3416L34.3489 34.345L69.7057 69.6986H69.7087L72.8139 62.6929L62.9306 34.6747Z" fill="#0079B3"/>
<path d="M62.9306 34.6747C62.2737 34.5069 61.6437 34.4031 61.0726 34.3851L59.8109 34.3416L34.3489 34.345L69.7057 69.6986H69.7087L72.8139 62.6929L62.9306 34.6747Z" fill="#CBCBCB"/>
<path d="M62.8983 34.6763C62.912 34.6793 62.9227 34.6831 62.9317 34.6844L62.9304 34.6831C62.9227 34.6793 62.912 34.6793 62.8983 34.6763ZM68.5467 37.6828C67.2636 36.3891 64.9874 35.2132 62.9317 34.6844L72.8136 62.7014L69.7084 69.7071H69.7054L77.2938 67.2836L77.31 46.4791L68.5467 37.6828Z" fill="#00A4E4"/>
<path d="M62.8983 34.6763C62.912 34.6793 62.9227 34.6831 62.9317 34.6844L62.9304 34.6831C62.9227 34.6793 62.912 34.6793 62.8983 34.6763ZM68.5467 37.6828C67.2636 36.3891 64.9874 35.2132 62.9317 34.6844L72.8136 62.7014L69.7084 69.7071H69.7054L77.2938 67.2836L77.31 46.4791L68.5467 37.6828Z" fill="#F2F2F2"/>
<path d="M61.5462 30.7517L55.2132 24.4653C53.7486 23.0143 51.7556 22.5629 50.7924 23.4649L34.3489 34.3489L59.8108 34.3455L61.0725 34.3891C61.6435 34.407 62.2736 34.5108 62.9305 34.6787L61.5462 30.7517Z" fill="#00D2B8"/>
<path d="M61.5462 30.7517L55.2132 24.4653C53.7486 23.0143 51.7556 22.5629 50.7924 23.4649L34.3489 34.3489L59.8108 34.3455L61.0725 34.3891C61.6435 34.407 62.2736 34.5108 62.9305 34.6787L61.5462 30.7517Z" fill="white"/>
</g>
<defs>
<linearGradient id="paint0_linear_10_112" x1="0" y1="0" x2="100" y2="100" gradientUnits="userSpaceOnUse">
<stop stop-color="#6BE987"/>
<stop offset="1" stop-color="#3FA8E4"/>
</linearGradient>
<clipPath id="clip0_10_112">
<rect width="100" height="100" fill="white"/>
</clipPath>
</defs>
</svg>
