<svg width="100" height="100" viewBox="0 0 100 100" fill="none" xmlns="http://www.w3.org/2000/svg">
<g clip-path="url(#clip0_10_110)">
<path d="M45 2.88675C48.094 1.10042 51.906 1.10042 55 2.88675L88.3013 22.1132C91.3953 23.8996 93.3013 27.2008 93.3013 30.7735V69.2265C93.3013 72.7992 91.3953 76.1004 88.3013 77.8868L55 97.1132C51.906 98.8996 48.094 98.8996 45 97.1132L11.6987 77.8868C8.60472 76.1004 6.69873 72.7992 6.69873 69.2265V30.7735C6.69873 27.2008 8.60472 23.8996 11.6987 22.1132L45 2.88675Z" fill="url(#paint0_linear_10_110)"/>
<path d="M58.9807 51.5774V48.7265H62.5442V45.163H66.1077V48.7265H69.6713V51.5774H66.1077V55.1409H62.5442V51.5774H58.9807ZM61.3326 41.5995C58.3392 36.2542 52.6376 32.6906 46.1519 32.6906C36.5304 32.6906 28.6906 40.5304 28.6906 50.1519C28.6906 59.7735 36.5304 67.6133 46.1519 67.6133C52.6376 67.6133 58.3392 64.0497 61.3326 58.7757L70.5265 64.1923C65.6801 72.6022 56.5575 78.3039 46.1519 78.3039C30.6149 78.3039 18 65.689 18 50.1519C18 34.6149 30.6149 22 46.1519 22C56.6287 22 65.7514 27.7729 70.5978 36.2542L61.3326 41.5995ZM82.5 51.5774H78.9365V55.1409H76.0856V51.5774H71.8094V48.7265H76.0856V45.163H78.9365V48.7265H82.5V51.5774Z" fill="white"/>
</g>
<defs>
<linearGradient id="paint0_linear_10_110" x1="0" y1="0" x2="100" y2="100" gradientUnits="userSpaceOnUse">
<stop stop-color="#6BE987"/>
<stop offset="1" stop-color="#3FA8E4"/>
</linearGradient>
<clipPath id="clip0_10_110">
<rect width="100" height="100" fill="white"/>
</clipPath>
</defs>
</svg>
