<svg width="100" height="100" viewBox="0 0 100 100" fill="none" xmlns="http://www.w3.org/2000/svg">
<g clip-path="url(#clip0_10_108)">
<path d="M45 2.88675C48.094 1.10042 51.906 1.10042 55 2.88675L88.3013 22.1132C91.3953 23.8996 93.3013 27.2008 93.3013 30.7735V69.2265C93.3013 72.7992 91.3953 76.1004 88.3013 77.8868L55 97.1132C51.906 98.8996 48.094 98.8996 45 97.1132L11.6987 77.8868C8.60472 76.1004 6.69873 72.7992 6.69873 69.2265V30.7735C6.69873 27.2008 8.60472 23.8996 11.6987 22.1132L45 2.88675Z" fill="url(#paint0_linear_10_108)"/>
<path d="M26.5198 39.5958L38.843 73.3481C30.2228 69.1716 24.2858 60.3328 24.2858 50.11C24.2858 46.3584 25.0871 42.8132 26.5198 39.5958ZM67.5447 48.8109C67.5447 45.6178 66.4034 43.4081 65.42 41.6841C64.1087 39.5594 62.8825 37.7503 62.8825 35.6256C62.8825 33.246 64.6794 31.0363 67.2169 31.0363C67.3261 31.0363 67.4354 31.0484 67.5568 31.0606C62.9553 26.8476 56.8362 24.2737 50.11 24.2737C41.0891 24.2737 33.1488 28.8994 28.5231 35.917C29.1301 35.9413 29.7008 35.9534 30.1864 35.9534C32.8817 35.9534 37.0704 35.6256 37.0704 35.6256C38.4667 35.5406 38.6245 37.5925 37.2404 37.7503C37.2404 37.7503 35.8442 37.9082 34.2901 37.9932L43.6995 65.9663L49.3573 49.0173L45.3385 37.9932C43.9423 37.9082 42.6311 37.7503 42.6311 37.7503C41.2348 37.6653 41.4048 35.5406 42.7889 35.6256C42.7889 35.6256 47.0504 35.9534 49.5879 35.9534C52.2833 35.9534 56.472 35.6256 56.472 35.6256C57.8682 35.5406 58.026 37.5925 56.6419 37.7503C56.6419 37.7503 55.2457 37.9082 53.6916 37.9932L63.0282 65.7599L65.6021 57.1519C66.6948 53.5824 67.5447 51.0206 67.5447 48.8109ZM50.5592 52.3683L42.8132 74.89C45.1321 75.5699 47.5725 75.9463 50.11 75.9463C53.121 75.9463 55.9984 75.4243 58.6816 74.4772C58.6088 74.368 58.5481 74.2466 58.4995 74.1252L50.5592 52.3683ZM72.7775 37.7139C72.8868 38.5395 72.9475 39.4137 72.9475 40.3728C72.9475 42.9953 72.4618 45.9335 70.9806 49.6244L63.0889 72.4375C70.7742 67.9575 75.9342 59.6408 75.9342 50.11C75.9342 45.6178 74.7929 41.3927 72.7775 37.7139ZM80.22 50.11C80.22 66.7191 66.7069 80.22 50.11 80.22C33.5009 80.22 20 66.7069 20 50.11C20 33.5009 33.5009 20 50.11 20C66.7069 20 80.22 33.5009 80.22 50.11ZM78.8359 50.11C78.8359 34.2658 65.942 21.3841 50.11 21.3841C34.2658 21.3841 21.3841 34.2658 21.3841 50.11C21.3841 65.9542 34.278 78.8359 50.11 78.8359C65.9542 78.8359 78.8359 65.9542 78.8359 50.11Z" fill="white"/>
</g>
<defs>
<linearGradient id="paint0_linear_10_108" x1="0" y1="0" x2="100" y2="100" gradientUnits="userSpaceOnUse">
<stop stop-color="#6BE987"/>
<stop offset="1" stop-color="#3FA8E4"/>
</linearGradient>
<clipPath id="clip0_10_108">
<rect width="100" height="100" fill="white"/>
</clipPath>
</defs>
</svg>
