<svg width="100" height="100" viewBox="0 0 100 100" fill="none" xmlns="http://www.w3.org/2000/svg">
<g clip-path="url(#clip0_203_2)">
<path d="M45 2.88675C48.094 1.10042 51.906 1.10042 55 2.88675L88.3013 22.1132C91.3953 23.8996 93.3013 27.2008 93.3013 30.7735V69.2265C93.3013 72.7992 91.3953 76.1004 88.3013 77.8868L55 97.1132C51.906 98.8996 48.094 98.8996 45 97.1132L11.6987 77.8868C8.60472 76.1004 6.69873 72.7992 6.69873 69.2265V30.7735C6.69873 27.2008 8.60472 23.8996 11.6987 22.1132L45 2.88675Z" fill="url(#paint0_linear_203_2)"/>
<path d="M34.6703 58L22.2863 54.544L25.0703 44.08L37.5503 47.536L34.6703 58ZM31.6943 52.816L32.3663 50.512L28.0463 49.264L27.4703 51.568L31.6943 52.816ZM54.7328 58L42.3488 54.544L45.1328 44.08L57.6128 47.536L54.7328 58ZM51.7568 52.816L52.4288 50.512L48.1088 49.264L47.5328 51.568L51.7568 52.816ZM74.7953 58L62.4113 54.544L65.1953 44.08L77.6753 47.536L74.7953 58ZM71.8193 52.816L72.4913 50.512L68.1713 49.264L67.5953 51.568L71.8193 52.816Z" fill="white"/>
</g>
<defs>
<linearGradient id="paint0_linear_203_2" x1="0" y1="0" x2="100" y2="100" gradientUnits="userSpaceOnUse">
<stop stop-color="#6BE987"/>
<stop offset="1" stop-color="#3FA8E4"/>
</linearGradient>
<clipPath id="clip0_203_2">
<rect width="100" height="100" fill="white"/>
</clipPath>
</defs>
</svg>
