<svg width="100" height="100" viewBox="0 0 100 100" fill="none" xmlns="http://www.w3.org/2000/svg">
<g clip-path="url(#clip0_9_7)">
<path d="M45 2.88675C48.094 1.10042 51.906 1.10042 55 2.88675L88.3013 22.1132C91.3953 23.8996 93.3013 27.2008 93.3013 30.7735V69.2265C93.3013 72.7992 91.3953 76.1004 88.3013 77.8868L55 97.1132C51.906 98.8996 48.094 98.8996 45 97.1132L11.6987 77.8868C8.60472 76.1004 6.69873 72.7992 6.69873 69.2265V30.7735C6.69873 27.2008 8.60472 23.8996 11.6987 22.1132L45 2.88675Z" fill="url(#paint0_linear_9_7)"/>
<path d="M68.75 26H31.13C28.2978 26 26 28.2978 26 31.13V68.75C26 71.5822 28.2978 73.88 31.13 73.88H68.75C71.5822 73.88 73.88 71.5822 73.88 68.75V31.13C73.88 28.2978 71.5822 26 68.75 26ZM52.0561 63.3421C52.0561 68.0019 49.3201 70.1287 45.3337 70.1287C41.732 70.1287 39.6479 68.2691 38.5792 66.014L42.245 63.8017C42.9504 65.0521 43.5916 66.1102 45.1413 66.1102C46.6162 66.1102 47.5567 65.5331 47.5567 63.278V47.9842H52.0561V63.3421ZM62.7009 70.1287C58.5221 70.1287 55.8181 68.1408 54.5036 65.5331L58.1694 63.4169C59.1313 64.988 60.3924 66.1529 62.6047 66.1529C64.4643 66.1529 65.6613 65.2231 65.6613 63.9299C65.6613 62.3909 64.4429 61.8459 62.3803 60.9374L61.2581 60.4565C58.0091 59.0778 55.8609 57.3357 55.8609 53.6699C55.8609 50.2927 58.4366 47.7277 62.4444 47.7277C65.3086 47.7277 67.3606 48.7216 68.8355 51.3294L65.33 53.5738C64.5605 52.1951 63.7269 51.65 62.4337 51.65C61.1191 51.65 60.2855 52.4836 60.2855 53.5738C60.2855 54.9204 61.1191 55.4654 63.0536 56.3098L64.1758 56.7907C68.0019 58.4259 70.1501 60.1038 70.1501 63.8658C70.1501 67.9057 66.9652 70.1287 62.7009 70.1287Z" fill="white"/>
</g>
<defs>
<linearGradient id="paint0_linear_9_7" x1="0" y1="0" x2="100" y2="100" gradientUnits="userSpaceOnUse">
<stop stop-color="#6BE987"/>
<stop offset="1" stop-color="#3FA8E4"/>
</linearGradient>
<clipPath id="clip0_9_7">
<rect width="100" height="100" fill="white"/>
</clipPath>
</defs>
</svg>
