<svg width="100" height="100" viewBox="0 0 100 100" fill="none" xmlns="http://www.w3.org/2000/svg">
<g clip-path="url(#clip0_9_9)">
<path d="M45 2.88675C48.094 1.10042 51.906 1.10042 55 2.88675L88.3013 22.1132C91.3953 23.8996 93.3013 27.2008 93.3013 30.7735V69.2265C93.3013 72.7992 91.3953 76.1004 88.3013 77.8868L55 97.1132C51.906 98.8996 48.094 98.8996 45 97.1132L11.6987 77.8868C8.60472 76.1004 6.69873 72.7992 6.69873 69.2265V30.7735C6.69873 27.2008 8.60472 23.8996 11.6987 22.1132L45 2.88675Z" fill="url(#paint0_linear_9_9)"/>
<path d="M50.3973 82.0879C49.5452 82.0879 48.6805 81.8589 47.9302 81.4266L40.0837 76.7848C38.9137 76.1235 39.486 75.8946 39.8675 75.7675C41.4317 75.2206 41.7497 75.1062 43.4156 74.1524C43.5936 74.0506 43.8225 74.0888 44.0006 74.2032L50.0285 77.7768C50.2447 77.9039 50.5499 77.9039 50.7534 77.7768L74.2418 64.2203C74.458 64.0932 74.5979 63.8388 74.5979 63.5845V36.4716C74.5979 36.2045 74.458 35.9629 74.2291 35.823L50.7534 22.2793C50.5372 22.1521 50.2447 22.1521 50.0285 22.2793L26.5654 35.8357C26.3365 35.9629 26.1966 36.2173 26.1966 36.4843V63.5845C26.1966 63.8388 26.3365 64.0931 26.5654 64.2076L33.0003 67.921C36.4975 69.6632 38.634 67.6158 38.634 65.5429V38.7861C38.634 38.4046 38.9392 38.1121 39.3207 38.1121H42.2965C42.6653 38.1121 42.9832 38.4046 42.9832 38.7861V65.5556C42.9832 70.2101 40.4398 72.8807 36.027 72.8807C34.6662 72.8807 33.598 72.8807 30.6222 71.4055L24.4671 67.8574C22.9411 66.9799 22 65.3394 22 63.5717V36.4716C22 34.7166 22.9411 33.0634 24.4671 32.1859L47.9302 18.6295C49.4181 17.7902 51.3892 17.7902 52.8644 18.6295L76.3529 32.1986C77.8789 33.0761 78.82 34.7166 78.82 36.4843V63.5845C78.82 65.3394 77.8789 66.9799 76.3529 67.8701L52.8644 81.4266C52.1141 81.8589 51.262 82.0879 50.3973 82.0879ZM69.3585 55.3692C69.3585 50.2951 65.9249 48.9471 58.7143 47.9933C51.4146 47.0268 50.6771 46.5308 50.6771 44.8267C50.6771 43.4151 51.3002 41.533 56.705 41.533C61.5247 41.533 63.3051 42.5758 64.0427 45.8314C64.1063 46.1366 64.3861 46.3655 64.704 46.3655H67.7561C67.9469 46.3655 68.1249 46.2892 68.2521 46.1493C68.3793 46.0094 68.4428 45.8187 68.4301 45.6279C67.9596 40.0197 64.2335 37.4127 56.705 37.4127C50.0031 37.4127 46.0099 40.2359 46.0099 44.9793C46.0099 50.117 49.9903 51.5414 56.4125 52.1772C64.1063 52.9275 64.704 54.0594 64.704 55.5727C64.704 58.1924 62.593 59.3115 57.646 59.3115C51.4274 59.3115 50.0666 57.7473 49.6088 54.6571C49.558 54.3264 49.2782 54.0848 48.9348 54.0848H45.8954C45.5139 54.0848 45.2214 54.39 45.2214 54.7588C45.2214 58.7138 47.3706 63.4319 57.6587 63.4319C65.0855 63.4191 69.3585 60.4815 69.3585 55.3692Z" fill="white"/>
</g>
<defs>
<linearGradient id="paint0_linear_9_9" x1="0" y1="0" x2="100" y2="100" gradientUnits="userSpaceOnUse">
<stop stop-color="#6BE987"/>
<stop offset="1" stop-color="#3FA8E4"/>
</linearGradient>
<clipPath id="clip0_9_9">
<rect width="100" height="100" fill="white"/>
</clipPath>
</defs>
</svg>
