<svg width="100" height="100" viewBox="0 0 100 100" fill="none" xmlns="http://www.w3.org/2000/svg">
<g clip-path="url(#clip0_10_70)">
<path d="M45 2.88675C48.094 1.10042 51.906 1.10042 55 2.88675L88.3013 22.1132C91.3953 23.8996 93.3013 27.2008 93.3013 30.7735V69.2265C93.3013 72.7992 91.3953 76.1004 88.3013 77.8868L55 97.1132C51.906 98.8996 48.094 98.8996 45 97.1132L11.6987 77.8868C8.60472 76.1004 6.69873 72.7992 6.69873 69.2265V30.7735C6.69873 27.2008 8.60472 23.8996 11.6987 22.1132L45 2.88675Z" fill="url(#paint0_linear_10_70)"/>
<path d="M74.0833 43.8054C73.224 40.3568 71.5946 37.7564 68.1237 37.7564H63.6484V43.0464C63.6484 47.1535 60.1664 50.6132 56.1933 50.6132H44.274C41.0152 50.6132 38.3144 53.4033 38.3144 56.6732V68.0345C38.3144 71.271 41.1268 73.1683 44.274 74.0946C48.0462 75.1994 51.6733 75.4003 56.1933 74.0946C59.1954 73.2241 62.1529 71.4719 62.1529 68.0345V63.4922H50.2448V61.9744H68.1237C71.5946 61.9744 72.878 59.5526 74.0833 55.9255C75.3333 52.1868 75.2775 48.5931 74.0833 43.8054ZM56.941 66.5167C58.1798 66.5167 59.1843 67.5323 59.1843 68.7822C59.1843 70.0434 58.1798 71.059 56.941 71.059C55.7134 71.059 54.6978 70.0322 54.6978 68.7822C54.709 67.5211 55.7134 66.5167 56.941 66.5167ZM43.7272 49.1177H55.6464C58.9611 49.1177 61.6061 46.3834 61.6061 43.0576V31.6852C61.6061 28.4487 58.8829 26.0269 55.6464 25.48C51.651 24.8216 47.3096 24.8551 43.7272 25.4912C38.6827 26.384 37.7675 28.2478 37.7675 31.6964V36.2386H49.698V37.7564H33.2922C29.8214 37.7564 26.7857 39.8434 25.8371 43.8054C24.7434 48.3476 24.6988 51.1824 25.8371 55.9255C26.6853 59.4522 28.7053 61.9744 32.1762 61.9744H36.272V56.5282C36.272 52.5886 39.676 49.1177 43.7272 49.1177ZM42.9794 33.203C41.7406 33.203 40.7362 32.1874 40.7362 30.9375C40.7473 29.6763 41.7406 28.6607 42.9794 28.6607C44.2071 28.6607 45.2227 29.6875 45.2227 30.9375C45.2227 32.1874 44.2182 33.203 42.9794 33.203Z" fill="white"/>
</g>
<defs>
<linearGradient id="paint0_linear_10_70" x1="0" y1="0" x2="100" y2="100" gradientUnits="userSpaceOnUse">
<stop stop-color="#6BE987"/>
<stop offset="1" stop-color="#3FA8E4"/>
</linearGradient>
<clipPath id="clip0_10_70">
<rect width="100" height="100" fill="white"/>
</clipPath>
</defs>
</svg>
