<svg width="100" height="100" viewBox="0 0 100 100" fill="none" xmlns="http://www.w3.org/2000/svg">
<g clip-path="url(#clip0_9_11)">
<path d="M45 2.88675C48.094 1.10042 51.906 1.10042 55 2.88675L88.3013 22.1132C91.3953 23.8996 93.3013 27.2008 93.3013 30.7735V69.2265C93.3013 72.7992 91.3953 76.1004 88.3013 77.8868L55 97.1132C51.906 98.8996 48.094 98.8996 45 97.1132L11.6987 77.8868C8.60472 76.1004 6.69873 72.7992 6.69873 69.2265V30.7735C6.69873 27.2008 8.60472 23.8996 11.6987 22.1132L45 2.88675Z" fill="url(#paint0_linear_9_11)"/>
<path d="M70.0918 40.432C69.4063 40.2035 68.7207 39.9877 68.0352 39.7845C68.1494 39.3148 68.251 38.8451 68.3525 38.3754C69.9141 30.809 68.8857 24.7279 65.4199 22.722C62.0811 20.8051 56.6348 22.7982 51.125 27.597C50.5791 28.0668 50.0459 28.5619 49.5381 29.057C49.1953 28.7269 48.8398 28.3968 48.4844 28.0795C42.708 22.9506 36.9189 20.7924 33.4531 22.8109C30.127 24.7406 29.1367 30.4662 30.5332 37.6263C30.6729 38.3373 30.8252 39.0355 31.0029 39.7464C30.1904 39.975 29.3906 40.2289 28.6416 40.4955C21.8623 42.8441 17 46.5511 17 50.3851C17 54.346 22.1797 58.3197 29.2256 60.7318C29.7969 60.9222 30.3682 61.1126 30.9521 61.2777C30.7617 62.0394 30.5967 62.7884 30.4443 63.5628C29.1113 70.6087 30.1523 76.1947 33.4785 78.1117C36.9063 80.0921 42.6699 78.0609 48.2812 73.1478C48.7256 72.7542 49.1699 72.348 49.6143 71.9163C50.1729 72.4622 50.7568 72.9828 51.3408 73.4906C56.7744 78.1624 62.1445 80.054 65.458 78.137C68.8857 76.1566 70.0029 70.1517 68.5557 62.8392C68.4414 62.2806 68.3145 61.7093 68.1748 61.1253C68.5811 61.0111 68.9746 60.8841 69.3682 60.7572C76.6934 58.3324 82 54.4095 82 50.3851C82 46.5384 76.998 42.806 70.0918 40.432ZM52.915 29.6537C57.6377 25.5404 62.043 23.9281 64.0488 25.0834C66.1943 26.3148 67.0195 31.2914 65.6738 37.8295C65.585 38.2611 65.4961 38.68 65.3818 39.099C62.5635 38.4642 59.707 38.0072 56.8379 37.7533C55.1875 35.392 53.3848 33.1322 51.4297 31.0121C51.9248 30.5424 52.4072 30.098 52.915 29.6537ZM38.2266 56.974C38.874 58.0785 39.5342 59.183 40.2324 60.2621C38.252 60.0462 36.2842 59.7289 34.3418 59.3099C34.9004 57.4818 35.5986 55.5902 36.4111 53.6605C36.9951 54.7777 37.5918 55.8822 38.2266 56.974ZM34.3799 41.7015C36.208 41.2953 38.1504 40.9652 40.1689 40.7113C39.4961 41.765 38.8359 42.8441 38.2139 43.9359C37.5918 45.015 36.9824 46.1195 36.4111 47.2367C35.6113 45.3451 34.9385 43.4916 34.3799 41.7015ZM37.8584 50.4486C38.6963 48.6966 39.6104 46.9828 40.5752 45.2943C41.54 43.6058 42.5811 41.9681 43.6729 40.3558C45.5771 40.2162 47.5195 40.14 49.5 40.14C51.4805 40.14 53.4355 40.2162 55.3271 40.3558C56.4062 41.9554 57.4346 43.5931 58.4121 45.2689C59.3896 46.9447 60.3037 48.6585 61.167 50.3978C60.3164 52.1498 59.4023 53.8763 58.4248 55.5775C57.46 57.266 56.4316 58.9037 55.3525 60.5287C53.4609 60.6683 51.4932 60.7318 49.5 60.7318C47.5068 60.7318 45.5771 60.6683 43.7109 60.554C42.6064 58.9417 41.5654 57.2914 40.5879 55.6029C39.6104 53.9144 38.709 52.2005 37.8584 50.4486ZM60.7861 56.9486C61.4336 55.8314 62.043 54.7015 62.6396 53.5589C63.4521 55.3998 64.1631 57.266 64.7852 59.183C62.8174 59.6273 60.8242 59.9701 58.8184 60.1986C59.5039 59.1322 60.1514 58.0404 60.7861 56.9486ZM62.6143 47.2367C62.0176 46.1195 61.4082 45.0023 60.7734 43.9105C60.1514 42.8314 59.5039 41.765 58.8311 40.7113C60.875 40.9652 62.8301 41.308 64.6582 41.7269C64.0742 43.6058 63.3887 45.4339 62.6143 47.2367ZM49.5254 32.9545C50.8584 34.4017 52.1152 35.9252 53.2832 37.4994C50.7695 37.3851 48.2432 37.3851 45.7295 37.4994C46.9736 35.8617 48.2559 34.3382 49.5254 32.9545ZM34.7988 25.1722C36.9316 23.9281 41.667 25.7054 46.6563 30.1234C46.9736 30.4027 47.291 30.7074 47.6211 31.0121C45.6533 33.1322 43.8379 35.392 42.1748 37.7533C39.3057 38.0072 36.4619 38.4515 33.6436 39.0736C33.4785 38.4261 33.3389 37.766 33.1992 37.1058C32.0059 30.9613 32.793 26.3275 34.7988 25.1722ZM31.6885 58.6371C31.1553 58.4847 30.6348 58.3197 30.1143 58.1419C27.4102 57.2914 24.3379 55.9457 22.1162 54.181C20.834 53.2923 19.9707 51.9212 19.7295 50.3851C19.7295 48.0619 23.7412 45.0912 29.5303 43.0726C30.2539 42.8187 30.9902 42.5902 31.7266 42.3744C32.5898 45.1293 33.6309 47.8334 34.8369 50.4486C33.6182 53.1019 32.5645 55.8441 31.6885 58.6371ZM46.4912 71.0785C44.3965 72.9954 41.9717 74.5189 39.3311 75.5599C37.9219 76.2327 36.2969 76.2962 34.8496 75.7249C32.8311 74.557 31.9932 70.0755 33.1357 64.0453C33.2754 63.3343 33.4277 62.6234 33.6055 61.9251C36.4492 62.5345 39.3184 62.9535 42.2256 63.1693C43.9014 65.5433 45.7422 67.8158 47.71 69.9486C47.3037 70.3421 46.8975 70.723 46.4912 71.0785ZM49.6016 67.9935C48.3066 66.597 47.0117 65.0482 45.7549 63.3851C46.9736 63.4359 48.2305 63.4613 49.5 63.4613C50.8076 63.4613 52.0898 63.4359 53.3594 63.3724C52.1914 64.9847 50.9346 66.5208 49.6016 67.9935ZM66.1943 71.8021C66.0801 73.3509 65.3184 74.7982 64.0996 75.7757C62.0811 76.9437 57.7773 75.4202 53.1309 71.4339C52.5977 70.9769 52.0645 70.4818 51.5186 69.974C53.4609 67.8285 55.251 65.556 56.876 63.1693C59.7832 62.9281 62.6777 62.4837 65.5342 61.8363C65.6611 62.3568 65.7754 62.8773 65.877 63.3851C66.499 66.1273 66.6006 68.9837 66.1943 71.8021ZM68.5049 58.1546C68.1494 58.2689 67.7939 58.3832 67.4258 58.4847C66.5371 55.7171 65.4453 53.013 64.1885 50.3851C65.4072 47.7953 66.4355 45.1293 67.2988 42.3998C67.959 42.5902 68.5938 42.7933 69.2031 42.9964C75.1191 45.0277 79.2705 48.0492 79.2705 50.3597C79.2705 52.848 74.8398 56.0599 68.5049 58.1546ZM49.5 56.2503C52.7119 56.2503 55.3145 53.6478 55.3145 50.4359C55.3145 47.224 52.7119 44.6214 49.5 44.6214C46.2881 44.6214 43.6855 47.224 43.6855 50.4359C43.6855 53.6478 46.2881 56.2503 49.5 56.2503Z" fill="white"/>
</g>
<defs>
<linearGradient id="paint0_linear_9_11" x1="0" y1="0" x2="100" y2="100" gradientUnits="userSpaceOnUse">
<stop stop-color="#6BE987"/>
<stop offset="1" stop-color="#3FA8E4"/>
</linearGradient>
<clipPath id="clip0_9_11">
<rect width="100" height="100" fill="white"/>
</clipPath>
</defs>
</svg>
