<svg width="100" height="100" viewBox="0 0 100 100" fill="none" xmlns="http://www.w3.org/2000/svg">
<g clip-path="url(#clip0_10_76)">
<path d="M45 2.88675C48.094 1.10042 51.906 1.10042 55 2.88675L88.3013 22.1132C91.3953 23.8996 93.3013 27.2008 93.3013 30.7735V69.2265C93.3013 72.7992 91.3953 76.1004 88.3013 77.8868L55 97.1132C51.906 98.8996 48.094 98.8996 45 97.1132L11.6987 77.8868C8.60472 76.1004 6.69873 72.7992 6.69873 69.2265V30.7735C6.69873 27.2008 8.60472 23.8996 11.6987 22.1132L45 2.88675Z" fill="url(#paint0_linear_10_76)"/>
<path d="M45.168 51.8418H55.122L50.145 39.8761L45.168 51.8418ZM50.145 21L23 30.7189L27.154 66.7337L50.145 79.5224L73.136 66.7337L77.29 30.7189L50.145 21ZM67.1531 65.6494H60.8044L57.3819 57.1062H42.9342L39.5117 65.6494H33.15L50.145 27.4662L67.1531 65.6494Z" fill="white"/>
</g>
<defs>
<linearGradient id="paint0_linear_10_76" x1="0" y1="0" x2="100" y2="100" gradientUnits="userSpaceOnUse">
<stop stop-color="#6BE987"/>
<stop offset="1" stop-color="#3FA8E4"/>
</linearGradient>
<clipPath id="clip0_10_76">
<rect width="100" height="100" fill="white"/>
</clipPath>
</defs>
</svg>
