<svg width="100" height="100" viewBox="0 0 100 100" fill="none" xmlns="http://www.w3.org/2000/svg">
<g clip-path="url(#clip0_10_80)">
<path d="M45 2.88675C48.094 1.10042 51.906 1.10042 55 2.88675L88.3013 22.1132C91.3953 23.8996 93.3013 27.2008 93.3013 30.7735V69.2265C93.3013 72.7992 91.3953 76.1004 88.3013 77.8868L55 97.1132C51.906 98.8996 48.094 98.8996 45 97.1132L11.6987 77.8868C8.60472 76.1004 6.69873 72.7992 6.69873 69.2265V30.7735C6.69873 27.2008 8.60472 23.8996 11.6987 22.1132L45 2.88675Z" fill="url(#paint0_linear_10_80)"/>
<path d="M33.3125 43.9084V58.6096C33.3125 60.5647 31.7764 62.1262 29.8213 62.1262C27.8789 62.1262 26 60.552 26 58.6096V43.9084C26 41.9914 27.8789 40.4172 29.8213 40.4172C31.7383 40.4172 33.3125 41.9914 33.3125 43.9084ZM34.6836 63.84C34.6836 65.9221 36.3594 67.5979 38.4414 67.5979H40.9678L41.0059 75.3547C41.0059 80.0393 48.0137 80.0012 48.0137 75.3547V67.5979H52.7363V75.3547C52.7363 80.0139 59.7822 80.0266 59.7822 75.3547V67.5979H62.3467C64.4033 67.5979 66.0791 65.9221 66.0791 63.84V41.0647H34.6836V63.84ZM66.168 39.8332H34.5439C34.5439 34.3996 37.7939 29.677 42.6182 27.2141L40.1934 22.7326C39.8379 22.1105 40.7393 21.717 41.0439 22.2502L43.5068 26.7697C47.9375 24.802 53.0283 24.9035 57.2559 26.7697L59.7061 22.2629C60.0234 21.717 60.9121 22.1232 60.5566 22.7453L58.1318 27.2141C62.918 29.677 66.168 34.3996 66.168 39.8332ZM44.4971 32.7873C44.4971 32.0637 43.9131 31.4543 43.1641 31.4543C42.4404 31.4543 41.8691 32.0637 41.8691 32.7873C41.8691 33.5109 42.4531 34.1203 43.1641 34.1203C43.9131 34.1203 44.4971 33.5109 44.4971 32.7873ZM58.8936 32.7873C58.8936 32.0637 58.3096 31.4543 57.5986 31.4543C56.8496 31.4543 56.2656 32.0637 56.2656 32.7873C56.2656 33.5109 56.8496 34.1203 57.5986 34.1203C58.3096 34.1203 58.8936 33.5109 58.8936 32.7873ZM70.9287 40.4172C69.0117 40.4172 67.4375 41.9533 67.4375 43.9084V58.6096C67.4375 60.5647 69.0117 62.1262 70.9287 62.1262C72.8838 62.1262 74.75 60.552 74.75 58.6096V43.9084C74.75 41.9533 72.8711 40.4172 70.9287 40.4172Z" fill="white"/>
</g>
<defs>
<linearGradient id="paint0_linear_10_80" x1="0" y1="0" x2="100" y2="100" gradientUnits="userSpaceOnUse">
<stop stop-color="#6BE987"/>
<stop offset="1" stop-color="#3FA8E4"/>
</linearGradient>
<clipPath id="clip0_10_80">
<rect width="100" height="100" fill="white"/>
</clipPath>
</defs>
</svg>
