<svg width="100" height="100" viewBox="0 0 100 100" fill="none" xmlns="http://www.w3.org/2000/svg">
<g clip-path="url(#clip0_10_82)">
<path d="M45 2.88675C48.094 1.10042 51.906 1.10042 55 2.88675L88.3013 22.1132C91.3953 23.8996 93.3013 27.2008 93.3013 30.7735V69.2265C93.3013 72.7992 91.3953 76.1004 88.3013 77.8868L55 97.1132C51.906 98.8996 48.094 98.8996 45 97.1132L11.6987 77.8868C8.60472 76.1004 6.69873 72.7992 6.69873 69.2265V30.7735C6.69873 27.2008 8.60472 23.8996 11.6987 22.1132L45 2.88675Z" fill="url(#paint0_linear_10_82)"/>
<path d="M75.8636 47.5401L52.3453 24.0159C51.6943 23.3654 50.8116 23 49.8913 23C48.971 23 48.0883 23.3654 47.4372 24.0159L42.5472 28.9023L48.7433 35.0985C51.9978 33.9992 55.079 37.1154 53.9617 40.3518L59.9342 46.3242C64.051 44.9051 67.2922 50.0525 64.2001 53.1422C61.0142 56.3281 55.7561 52.797 57.4651 48.6514L51.8907 43.0842V57.7388C54.9335 59.247 54.5679 62.772 52.9828 64.3535C52.2083 65.1275 51.1582 65.5623 50.0633 65.5623C48.9683 65.5623 47.9182 65.1275 47.1438 64.3535C45.0307 62.2368 45.8124 58.7118 48.4968 57.6186V42.8257C45.9952 41.8022 45.5382 39.1287 46.255 37.4136L40.1466 31.298L24.0164 47.4307C23.3656 48.0816 23 48.9643 23 49.8848C23 50.8052 23.3656 51.6879 24.0164 52.3388L47.5419 75.8631C48.1927 76.5135 49.0752 76.8789 49.9953 76.8789C50.9155 76.8789 51.7979 76.5135 52.4488 75.8631L75.8636 52.4483C76.5144 51.7974 76.88 50.9146 76.88 49.9942C76.88 49.0738 76.5144 48.191 75.8636 47.5401Z" fill="white"/>
</g>
<defs>
<linearGradient id="paint0_linear_10_82" x1="0" y1="0" x2="100" y2="100" gradientUnits="userSpaceOnUse">
<stop stop-color="#6BE987"/>
<stop offset="1" stop-color="#3FA8E4"/>
</linearGradient>
<clipPath id="clip0_10_82">
<rect width="100" height="100" fill="white"/>
</clipPath>
</defs>
</svg>
