<svg width="100" height="100" viewBox="0 0 100 100" fill="none" xmlns="http://www.w3.org/2000/svg">
<g clip-path="url(#clip0_10_92)">
<path d="M45 2.88675C48.094 1.10042 51.906 1.10042 55 2.88675L88.3013 22.1132C91.3953 23.8996 93.3013 27.2008 93.3013 30.7735V69.2265C93.3013 72.7992 91.3953 76.1004 88.3013 77.8868L55 97.1132C51.906 98.8996 48.094 98.8996 45 97.1132L11.6987 77.8868C8.60472 76.1004 6.69873 72.7992 6.69873 69.2265V30.7735C6.69873 27.2008 8.60472 23.8996 11.6987 22.1132L45 2.88675Z" fill="url(#paint0_linear_10_92)"/>
<path d="M49.8987 32.9356C50.0279 33.0002 50.1313 33.1553 50.2864 33.1553C50.4286 33.1553 50.6483 33.1036 50.6612 32.9614C50.6871 32.7805 50.4157 32.6642 50.2477 32.5866C50.0279 32.4962 49.7436 32.4574 49.5368 32.5737C49.4851 32.5996 49.4334 32.6642 49.4593 32.7159C49.4981 32.8839 49.7565 32.858 49.8987 32.9356ZM47.0683 33.1553C47.2234 33.1553 47.3268 33.0002 47.456 32.9356C47.5982 32.858 47.8567 32.8839 47.9084 32.7288C47.9342 32.6771 47.8825 32.6125 47.8308 32.5866C47.624 32.4703 47.3397 32.5091 47.12 32.5996C46.952 32.6771 46.6806 32.7934 46.7064 32.9744C46.7193 33.1036 46.9391 33.1682 47.0683 33.1553ZM75.6438 69.188C75.1785 68.671 74.9588 67.6888 74.7132 66.6419C74.4806 65.5951 74.2092 64.4707 73.3562 63.7469C73.1882 63.6047 73.0202 63.4755 72.8392 63.3721C72.6712 63.2687 72.4903 63.1782 72.3093 63.1136C73.4984 59.5853 73.0331 56.0699 71.8311 52.8906C70.3578 49.0004 67.7858 45.6013 65.8214 43.275C63.6113 40.4963 61.4659 37.8597 61.5047 33.9695C61.5693 28.0373 62.1638 17.013 51.7081 17C38.4737 16.9742 41.7823 30.3637 41.6401 34.4736C41.4204 37.4978 40.813 39.8759 38.7322 42.8355C36.2895 45.7435 32.8516 50.435 31.2232 55.3332C30.4477 57.6467 30.0859 59.9989 30.4219 62.2219C29.5818 62.9715 28.9485 64.1217 28.2765 64.8325C27.7336 65.3883 26.9453 65.5951 26.0793 65.9053C25.2134 66.2154 24.27 66.6807 23.6884 67.7793C23.417 68.2833 23.3265 68.8261 23.3265 69.3819C23.3265 69.8859 23.404 70.4029 23.4816 70.9069C23.6367 71.9538 23.8047 72.936 23.585 73.5952C22.9129 75.4562 22.8224 76.7487 23.3006 77.6921C23.7918 78.6356 24.774 79.0492 25.8984 79.2818C28.1343 79.7471 31.1715 79.6308 33.5625 80.8973C36.1215 82.2415 38.7192 82.7197 40.7871 82.2415C42.2863 81.9054 43.5141 81.0007 44.1345 79.6308C45.75 79.6178 47.5336 78.9329 50.3769 78.7778C52.3026 78.6227 54.7194 79.4628 57.4982 79.3077C57.5757 79.6049 57.6791 79.9022 57.8213 80.1736V80.1865C58.894 82.3449 60.8972 83.3271 63.0297 83.1591C65.1751 82.9911 67.4369 81.7374 69.2721 79.5532C71.0298 77.4337 73.9249 76.5548 75.8506 75.3916C76.807 74.81 77.5824 74.0863 77.647 73.0265C77.6987 71.9667 77.0784 70.7906 75.6438 69.188ZM50.2735 28.2829C51.5401 25.4137 54.6936 25.4654 55.9602 28.2312C56.8002 30.0664 56.4254 32.2248 55.4044 33.4526C55.1976 33.3492 54.6419 33.1165 53.776 32.8193C53.9181 32.6642 54.1766 32.4703 54.28 32.2248C54.9004 30.6997 54.2542 28.7352 53.1039 28.6964C52.1604 28.6318 51.3074 30.0923 51.5789 31.669C51.049 31.4105 50.364 31.2167 49.8987 31.1004C49.7695 30.2086 49.8599 29.2134 50.2735 28.2829ZM45.0133 26.7966C46.3187 26.7966 47.7016 28.6318 47.4819 31.1262C47.0295 31.2554 46.5643 31.4493 46.1636 31.7207C46.3187 30.5705 45.7371 29.1229 44.9229 29.1876C43.8372 29.278 43.6563 31.9275 44.6902 32.8193C44.8195 32.9227 44.9358 32.7934 43.9277 33.5301C41.9115 31.6432 42.5707 26.7966 45.0133 26.7966ZM43.2556 34.6416C44.057 34.0471 45.0133 33.3492 45.078 33.2845C45.6854 32.7159 46.8227 31.4493 48.6838 31.4493C49.6014 31.4493 50.7 31.7466 52.0312 32.5996C52.8454 33.1295 53.4916 33.1682 54.9521 33.8015C56.0377 34.2539 56.7227 35.0552 56.3091 36.1537C55.9731 37.0713 54.8875 38.0148 53.3753 38.493C51.9407 38.9583 50.8163 40.5609 48.4383 40.4187C47.9342 40.3929 47.5336 40.2895 47.1975 40.1473C46.1636 39.695 45.6208 38.8032 44.6127 38.2087C43.5012 37.5883 42.9067 36.8646 42.7128 36.2313C42.5319 35.598 42.7128 35.0681 43.2556 34.6416ZM43.6821 77.8085C43.3332 82.3449 38.0084 82.2544 33.9502 80.1348C30.0859 78.0928 25.0842 79.2947 24.0632 77.3044C23.753 76.697 23.753 75.663 24.3992 73.8924V73.8666C24.7094 72.8843 24.4767 71.7987 24.3217 70.7777C24.1666 69.7696 24.089 68.8391 24.438 68.1928C24.8903 67.3269 25.5365 67.0167 26.3508 66.7324C27.682 66.2542 27.8758 66.293 28.8839 65.4529C29.5947 64.7162 30.1117 63.7857 30.7321 63.1265C31.3912 62.4157 32.0245 62.0797 33.0197 62.2348C34.0665 62.3899 34.9712 63.1136 35.8501 64.3027L38.3832 68.9037C39.611 71.4756 43.9536 75.159 43.6821 77.8085ZM43.5012 74.4611C42.9713 73.6081 42.2605 72.7034 41.6401 71.9279C42.5577 71.9279 43.4754 71.6436 43.7985 70.7777C44.0957 69.9764 43.7985 68.852 42.8421 67.5596C41.0973 65.2073 37.8921 63.3592 37.8921 63.3592C36.1473 62.2736 35.1651 60.9424 34.7127 59.4948C34.2604 58.0473 34.325 56.4835 34.674 54.9455C35.346 51.9859 37.0779 49.1038 38.1894 47.2944C38.4866 47.0747 38.2927 47.708 37.0649 49.9826C35.9664 52.0634 33.9114 56.8712 36.7289 60.6322C36.8065 57.9569 37.4397 55.2299 38.5125 52.6838C40.0634 49.1426 43.3332 43.0036 43.5917 38.1182C43.7338 38.2216 44.1862 38.5318 44.393 38.6481C44.9875 38.997 45.4398 39.514 46.0214 39.9793C47.624 41.2717 49.7048 41.1683 51.5013 40.1344C52.3026 39.682 52.9488 39.1651 53.5563 38.9712C54.8358 38.5705 55.8568 37.8597 56.4384 37.0326C57.4335 40.9615 59.7599 46.6353 61.2462 49.401C62.0346 50.8744 63.6113 53.9891 64.2963 57.7501C64.7228 57.7372 65.201 57.8018 65.705 57.931C67.4886 53.3171 64.1929 48.3413 62.6937 46.9584C62.0863 46.3638 62.0604 46.1054 62.3577 46.1183C63.9861 47.5658 66.1315 50.4737 66.907 53.7436C67.2689 55.2428 67.3335 56.8066 66.9587 58.3575C69.0783 59.2364 71.5985 60.6709 70.9264 62.8551C70.6421 62.8422 70.5129 62.8551 70.3836 62.8551C70.7972 61.5498 69.8796 60.5805 67.4369 59.4819C64.9037 58.3704 62.7842 58.3704 62.4869 61.0974C60.9231 61.6403 60.1218 62.9973 59.7211 64.6258C59.3592 66.0733 59.2558 67.818 59.1525 69.7825C59.0878 70.7777 58.6872 72.1089 58.2736 73.5305C54.1249 76.4902 48.3607 77.7826 43.5012 74.4611ZM76.7682 72.9748C76.6519 75.1461 71.4434 75.5467 68.6001 78.9846C66.8941 81.0137 64.8003 82.1381 62.9651 82.2802C61.1299 82.4224 59.5402 81.6599 58.6096 79.7859C58.0022 78.3513 58.2995 76.8004 58.7518 75.0944C59.23 73.2591 59.9408 71.3722 60.0313 69.8471C60.1347 67.8827 60.251 66.1637 60.5741 64.8455C60.9101 63.5143 61.4271 62.6225 62.3447 62.1185C62.3835 62.0926 62.4352 62.0797 62.474 62.0538C62.5774 63.7598 63.4174 65.4917 64.9037 65.8665C66.5322 66.293 68.8715 64.8972 69.8666 63.7598C71.0298 63.7211 71.8957 63.6435 72.7875 64.419C74.067 65.5175 73.7051 68.335 74.9976 69.7954C76.3675 71.2947 76.807 72.3157 76.7682 72.9748ZM43.7597 36.2183C44.0182 36.4639 44.3671 36.7999 44.7936 37.136C45.6466 37.808 46.8357 38.5059 48.3219 38.5059C49.8212 38.5059 51.2299 37.7434 52.4319 37.1101C53.0651 36.7741 53.8406 36.2054 54.3446 35.766C54.8487 35.3266 55.1072 34.9518 54.7453 34.913C54.3834 34.8742 54.4093 35.249 53.9698 35.5721C53.4012 35.9857 52.7162 36.5285 52.1734 36.8387C51.217 37.3815 49.6531 38.157 48.309 38.157C46.9649 38.157 45.8922 37.5366 45.0909 36.9033C44.6902 36.5802 44.3542 36.2571 44.0957 36.0116C43.9019 35.8306 43.8502 35.417 43.54 35.3783C43.359 35.3653 43.3073 35.8565 43.7597 36.2183Z" fill="white"/>
</g>
<defs>
<linearGradient id="paint0_linear_10_92" x1="0" y1="0" x2="100" y2="100" gradientUnits="userSpaceOnUse">
<stop stop-color="#6BE987"/>
<stop offset="1" stop-color="#3FA8E4"/>
</linearGradient>
<clipPath id="clip0_10_92">
<rect width="100" height="100" fill="white"/>
</clipPath>
</defs>
</svg>
