<svg width="100" height="100" viewBox="0 0 100 100" fill="none" xmlns="http://www.w3.org/2000/svg">
<rect width="100" height="100" rx="50" fill="url(#paint0_linear_202_6)"/>
<path d="M50.0069 34.104C41.21 34.104 34.1144 41.2012 34.1144 50C34.1144 58.7988 41.21 65.896 50.0069 65.896C58.8038 65.896 65.8994 58.7988 65.8994 50C65.8994 41.2012 58.8038 34.104 50.0069 34.104ZM50.0069 60.3345C44.3221 60.3345 39.6747 55.6999 39.6747 50C39.6747 44.3001 44.3083 39.6655 50.0069 39.6655C55.7055 39.6655 60.3391 44.3001 60.3391 50C60.3391 55.6999 55.6917 60.3345 50.0069 60.3345ZM70.2563 33.4538C70.2563 35.5151 68.5965 37.1614 66.5495 37.1614C64.4886 37.1614 62.8426 35.5013 62.8426 33.4538C62.8426 31.4062 64.5024 29.7461 66.5495 29.7461C68.5965 29.7461 70.2563 31.4062 70.2563 33.4538ZM80.7822 37.2168C80.547 32.2501 79.4128 27.8507 75.7751 24.226C72.1513 20.6014 67.7528 19.4669 62.7873 19.2179C57.6696 18.9274 42.3304 18.9274 37.2127 19.2179C32.261 19.4531 27.8626 20.5875 24.2249 24.2122C20.5872 27.8369 19.4668 32.2363 19.2178 37.2029C18.9274 42.3218 18.9274 57.6644 19.2178 62.7832C19.453 67.7499 20.5872 72.1493 24.2249 75.774C27.8626 79.3986 32.2472 80.5331 37.2127 80.7821C42.3304 81.0726 57.6696 81.0726 62.7873 80.7821C67.7528 80.5469 72.1513 79.4125 75.7751 75.774C79.399 72.1493 80.5332 67.7499 80.7822 62.7832C81.0726 57.6644 81.0726 42.3356 80.7822 37.2168ZM74.1707 68.2756C73.0918 70.9872 71.0032 73.0762 68.2784 74.1691C64.1981 75.7878 54.516 75.4143 50.0069 75.4143C45.4978 75.4143 35.8019 75.774 31.7354 74.1691C29.0244 73.09 26.9359 71.001 25.8432 68.2756C24.2249 64.1944 24.5983 54.5101 24.5983 50C24.5983 45.4899 24.2387 35.7918 25.8432 31.7244C26.922 29.0128 29.0106 26.9238 31.7354 25.8309C35.8157 24.2122 45.4978 24.5857 50.0069 24.5857C54.516 24.5857 64.2119 24.226 68.2784 25.8309C70.9894 26.91 73.078 28.999 74.1707 31.7244C75.789 35.8056 75.4155 45.4899 75.4155 50C75.4155 54.5101 75.789 64.2082 74.1707 68.2756Z" fill="white"/>
<defs>
<linearGradient id="paint0_linear_202_6" x1="0" y1="0" x2="100" y2="100" gradientUnits="userSpaceOnUse">
<stop stop-color="#6BE987"/>
<stop offset="1" stop-color="#3FA8E4"/>
</linearGradient>
</defs>
</svg>
