<svg width="100" height="100" viewBox="0 0 100 100" fill="none" xmlns="http://www.w3.org/2000/svg">
<rect width="100" height="100" rx="50" fill="url(#paint0_linear_5_16)"/>
<path fill-rule="evenodd" clip-rule="evenodd" d="M82.0731 63.8405C82.0731 46.1305 74.1737 31.7755 74.1737 31.7755C66.2743 25.8355 58.7589 26.0005 58.7589 26.0005L57.9909 26.8805C67.3166 29.7405 71.6503 33.8655 71.6503 33.8655C58.6194 26.7049 43.3123 26.7036 30.672 32.2705C28.6423 33.2055 27.4354 33.8655 27.4354 33.8655C27.4354 33.8655 31.9886 29.5205 41.8629 26.6605L41.3143 26.0005C41.3143 26.0005 33.7989 25.8355 25.8994 31.7755C25.8994 31.7755 18 46.1305 18 63.8405C18 63.8405 22.608 71.8155 34.7314 72.2005C34.7314 72.2005 36.7611 69.7255 38.4069 67.6355C31.44 65.5455 28.8069 61.1455 28.8069 61.1455C29.4184 61.5746 30.3307 62.1002 30.7853 62.362C30.9305 62.4457 31.029 62.5024 31.056 62.5205C40.3153 67.7192 53.4677 69.4225 65.2869 64.4455C67.2069 63.7305 69.3463 62.6855 71.5954 61.2005C71.5954 61.2005 68.8526 65.7105 61.6663 67.7455C63.312 69.8355 65.2869 72.2005 65.2869 72.2005C77.4103 71.8155 82.0731 63.8405 82.0731 63.8405ZM59.8011 58.7255C62.928 58.7255 65.3966 55.9755 65.3966 52.6205C65.3966 49.2655 62.928 46.5155 59.8011 46.5155C56.6743 46.5155 54.2057 49.2655 54.2057 52.6205C54.2057 55.9755 56.7291 58.7255 59.8011 58.7255ZM34.1829 52.6205C34.1829 49.2655 36.6514 46.5155 39.7783 46.5155C42.9051 46.5155 45.4286 49.2655 45.3737 52.6205C45.3737 55.9755 42.9051 58.7255 39.7783 58.7255C36.7063 58.7255 34.1829 55.9755 34.1829 52.6205Z" fill="white"/>
<defs>
<linearGradient id="paint0_linear_5_16" x1="0" y1="0" x2="100" y2="100" gradientUnits="userSpaceOnUse">
<stop stop-color="#6BE987"/>
<stop offset="1" stop-color="#3FA8E4"/>
</linearGradient>
</defs>
</svg>
