<svg width="100" height="100" viewBox="0 0 100 100" fill="none" xmlns="http://www.w3.org/2000/svg">
<rect width="100" height="100" rx="50" fill="url(#paint0_linear_5_14)"/>
<path d="M37.8221 71.879H28.7248V42.5832H37.8221V71.879ZM33.2685 38.587C30.3595 38.587 28 36.1775 28 33.2685C28 31.8712 28.5551 30.5312 29.5431 29.5431C30.5312 28.5551 31.8712 28 33.2685 28C34.6658 28 36.0059 28.5551 36.994 29.5431C37.982 30.5312 38.5371 31.8712 38.5371 33.2685C38.5371 36.1775 36.1766 38.587 33.2685 38.587ZM71.8702 71.879H62.7925V57.618C62.7925 54.2193 62.724 49.8607 58.0627 49.8607C53.3329 49.8607 52.6081 53.5532 52.6081 57.3732V71.879H43.5206V42.5832H52.2457V46.5795H52.373C53.5875 44.2777 56.5543 41.8486 60.9805 41.8486C70.1875 41.8486 71.88 47.9115 71.88 55.7864V71.879H71.8702Z" fill="white"/>
<defs>
<linearGradient id="paint0_linear_5_14" x1="0" y1="0" x2="100" y2="100" gradientUnits="userSpaceOnUse">
<stop stop-color="#6BE987"/>
<stop offset="1" stop-color="#3FA8E4"/>
</linearGradient>
</defs>
</svg>
