<svg width="1124" height="83" viewBox="0 0 1124 83" fill="none" xmlns="http://www.w3.org/2000/svg">
<path d="M0.8125 0.0625H30.1875L52.4375 36.9375L69.9375 6.9375V48.6875L50 83L0.8125 0.0625ZM74 83V0.0625H101.625V83H74ZM0.75 83V7.75L26.5625 51.0625V83H0.75ZM135.438 56.625L107.312 0.0625H134.438L163.125 58.5625V83H135.438V56.625ZM164.875 52.75L151.438 25.5L165.062 0.0625H191.625L164.875 52.75ZM248.062 22.4375H276.812V83H248.062V22.4375ZM226.438 0.0625H298.438V18.125H226.438V0.0625ZM336.625 48.9375V83H309V0.0625H336.625V32.9375H363.062V48.9375H336.625ZM341 16.125V0.0625H384.188V24.0625H358.188V16.125H341ZM341 83V66.4375H356.562V58.125H384.188V83H341ZM423.875 83H412.875L396.25 66.4375V16.625L412.875 0.0625H423.875V83ZM428.25 16.625V0.0625H457.688L474.25 16.625V33.3125H446.625V16.625H428.25ZM428.25 83V66.4375H446.625V54.3125H474.25V66.4375L457.688 83H428.25ZM539.812 0.0625H567.688V83H540V49.3125H519.5V32.6875H539.812V0.0625ZM515.125 83H487.5V0.0625H515.125V83ZM666.625 83V51.9375H630.75L614.125 35.3125V16.625L630.75 0.0625H640.125V29.5H678.25L694.312 46.125V66.4375L677.75 83H666.625ZM644.5 15V0.0625H677.688L692.062 14.5V23.3125H666.625V15H644.5ZM614.125 58.125H641.75V68H662.25V83H628.062L614.125 66.4375V58.125ZM725.312 22.4375H754.062V83H725.312V22.4375ZM703.688 0.0625H775.688V18.125H703.688V0.0625ZM829.562 73.9375H802.438L808.188 57.5H823.188L801 0.0625H827.938L861 83H833.062L829.562 73.9375ZM795.062 83H768.375L798 3.8125L810.25 36.75L795.062 83ZM895.25 83H884.25L867.625 66.4375V16.625L884.25 0.0625H895.25V83ZM899.625 16.625V0.0625H929.062L945.625 16.625V33.3125H918V16.625H899.625ZM899.625 83V66.4375H918V54.3125H945.625V66.4375L929.062 83H899.625ZM958.875 83V0.0625H986.5V83H958.875ZM990.75 71.25V30.9375L1010.12 0.125L1038.88 0.0625L990.75 71.25ZM1040.19 83H1010.31L1000.94 63.6875L1017.31 39.125L1040.19 83ZM1095.75 83V51.9375H1059.88L1043.25 35.3125V16.625L1059.88 0.0625H1069.25V29.5H1107.38L1123.44 46.125V66.4375L1106.88 83H1095.75ZM1073.62 15V0.0625H1106.81L1121.19 14.5V23.3125H1095.75V15H1073.62ZM1043.25 58.125H1070.88V68H1091.38V83H1057.19L1043.25 66.4375V58.125Z" fill="url(#paint0_linear_11_141)"/>
<defs>
<linearGradient id="paint0_linear_11_141" x1="-19" y1="46.9999" x2="1142" y2="46.9999" gradientUnits="userSpaceOnUse">
<stop stop-color="#6BE987"/>
<stop offset="1" stop-color="#3FA8E4"/>
</linearGradient>
</defs>
</svg>
