<svg width="1321" height="83" viewBox="0 0 1321 83" fill="none" xmlns="http://www.w3.org/2000/svg">
<path d="M0.75 0.0625H30.125L52.375 36.9375L69.875 6.9375V48.6875L49.9375 83L0.75 0.0625ZM73.9375 83V0.0625H101.562V83H73.9375ZM0.6875 83V7.75L26.5 51.0625V83H0.6875ZM135.375 56.625L107.25 0.0625H134.375L163.062 58.5625V83H135.375V56.625ZM164.812 52.75L151.375 25.5L165 0.0625H191.562L164.812 52.75ZM256.812 83H245.812L229.188 66.4375V16.625L245.812 0.0625H256.812V83ZM261.188 16.625V0.0625H290.625L307.188 16.625V33.3125H279.562V16.625H261.188ZM261.188 83V66.4375H279.562V54.3125H307.188V66.4375L290.625 83H261.188ZM346.188 66.125H356.562V83H335.312L318.5 66.4375V16.625L335.312 0.0625H356.562V16.875H346.188V66.125ZM371.5 16.875H360.938V0.0625H382.375L399.125 16.625V66.4375L382.375 83H360.938V66.125H371.5V16.875ZM491.562 83H462.188L411.938 0.0625H441.125L491.562 83ZM411.938 83V7.9375L436 47.375V83H411.938ZM491.562 0.0625V75.125L467.5 35.5V0.0625H491.562ZM523.75 22.4375H552.5V83H523.75V22.4375ZM502.125 0.0625H574.125V18.125H502.125V0.0625ZM584.688 83V0.0625H612.312V83H584.688ZM616.688 16.625V0.0625H648.25L664.875 16.625V41.5L652.125 54.25L651.25 52.5L625.312 55.9375L626.312 58.125H616.688V42.0625H637.438V16.625H616.688ZM667.688 83H638.188L626.312 58.125H648.25L652.125 54.25L667.688 83ZM676.312 65.3125H684.625V17.6875H676.312V0.0625H720.562V17.6875H712.25V65.3125H720.562V83H676.312V65.3125ZM786.438 16.625H765.938V0.0625H798L814.625 16.625V33.5L806.312 41.8125L814.625 50.125V66.4375L798 83H765.938V66.4375H786.438V48.75H765.938V34.3125H786.438V16.625ZM733.938 0.0625H761.562V83H733.938V0.0625ZM906.875 66.4375L890.312 83H869V66.4375H879.25V0.0625H906.875V66.4375ZM854.438 66.4375H864.625V83H843.375L826.75 66.4375V0.0625H854.438V66.4375ZM938.5 22.4375H967.25V83H938.5V22.4375ZM916.875 0.0625H988.875V18.125H916.875V0.0625ZM998.188 65.3125H1006.5V17.6875H998.188V0.0625H1042.44V17.6875H1034.12V65.3125H1042.44V83H998.188V65.3125ZM1081.56 66.125H1091.94V83H1070.69L1053.88 66.4375V16.625L1070.69 0.0625H1091.94V16.875H1081.56V66.125ZM1106.88 16.875H1096.31V0.0625H1117.75L1134.5 16.625V66.4375L1117.75 83H1096.31V66.125H1106.88V16.875ZM1226.94 83H1197.56L1147.31 0.0625H1176.5L1226.94 83ZM1147.31 83V7.9375L1171.38 47.375V83H1147.31ZM1226.94 0.0625V75.125L1202.88 35.5V0.0625H1226.94ZM1292.81 83V51.9375H1256.94L1240.31 35.3125V16.625L1256.94 0.0625H1266.31V29.5H1304.44L1320.5 46.125V66.4375L1303.94 83H1292.81ZM1270.69 15V0.0625H1303.88L1318.25 14.5V23.3125H1292.81V15H1270.69ZM1240.31 58.125H1267.94V68H1288.44V83H1254.25L1240.31 66.4375V58.125Z" fill="url(#paint0_linear_11_142)"/>
<defs>
<linearGradient id="paint0_linear_11_142" x1="-7" y1="46.5754" x2="1327" y2="46.5754" gradientUnits="userSpaceOnUse">
<stop stop-color="#6BE987"/>
<stop offset="1" stop-color="#3FA8E4"/>
</linearGradient>
</defs>
</svg>
