<svg xmlns="http://www.w3.org/2000/svg" width="969" height="192" viewBox="0 0 969 192" fill="none">
    <path
        d="M87.25 83.9375H60.125L65.875 67.5H80.875L58.6875 10.0625H85.625L118.688 93H90.75L87.25 83.9375ZM52.75 93H26.0625L55.6875 13.8125L67.9375 46.75L52.75 93ZM126.562 93V10.0625H154.188V93H126.562ZM158.562 26.625V10.0625H190.125L206.75 26.625V51.5L194 64.25L193.125 62.5L167.188 65.9375L168.188 68.125H158.562V52.0625H179.312V26.625H158.562ZM209.562 93H180.062L168.188 68.125H190.125L194 64.25L209.562 93ZM218.188 75.3125H226.5V27.6875H218.188V10.0625H262.438V27.6875H254.125V75.3125H262.438V93H218.188V75.3125ZM275.812 10.0625H303.438V47.125H328.938V63.4375H303.438V93H275.812V10.0625ZM307.812 26.625V10.0625H349.938V37.5625H322.312V26.625H307.812ZM443.312 93V61.9375H407.438L390.812 45.3125V26.625L407.438 10.0625H416.812V39.5H454.938L471 56.125V76.4375L454.438 93H443.312ZM421.188 25V10.0625H454.375L468.75 24.5V33.3125H443.312V25H421.188ZM390.812 68.125H418.438V78H438.938V93H404.75L390.812 76.4375V68.125ZM538.875 83.9375H511.75L517.5 67.5H532.5L510.312 10.0625H537.25L570.312 93H542.375L538.875 83.9375ZM504.375 93H477.688L507.312 13.8125L519.562 46.75L504.375 93ZM578.188 93V10.0625H605.812V93H578.188ZM610.188 26.625V10.0625H641.75L658.375 26.625V51.5L645.625 64.25L644.75 62.5L618.812 65.9375L619.812 68.125H610.188V52.0625H630.938V26.625H610.188ZM661.188 93H631.688L619.812 68.125H641.75L645.625 64.25L661.188 93ZM703.062 93V76.4375H723.562V26.625H703.062V10.0625H734.625L751.25 26.625V76.4375L734.625 93H703.062ZM671.062 10.0625H698.688V93H671.062V10.0625ZM818.375 83.9375H791.25L797 67.5H812L789.812 10.0625H816.75L849.812 93H821.875L818.375 83.9375ZM783.875 93H757.188L786.812 13.8125L799.062 46.75L783.875 93ZM857.688 93V10.0625H885.312V93H857.688ZM889.688 26.625V10.0625H921.25L937.875 26.625V51.5L925.125 64.25L924.25 62.5L898.312 65.9375L899.312 68.125H889.688V52.0625H910.438V26.625H889.688ZM940.688 93H911.188L899.312 68.125H921.25L925.125 64.25L940.688 93Z"
        fill="url(#paint0_linear_3_2)" />
    <path
        d="M260.469 161.75V139.594L270.062 129.938H281.406V136.812H274.156L267.344 143.625V157.656L274.156 164.469H282.031V171.344H270L260.469 161.75ZM290.25 136.812H283.094V129.938H294.438L304.062 139.594V157.562H297.219V143.719L290.25 136.812ZM278.969 157.562V143.719H285.594V159.969L290.094 164.438L299.969 164.469L294.438 171.344H283.719V157.562H278.969ZM350.531 170H335.844L310.719 128.531H325.312L350.531 170ZM310.719 170V132.469L322.75 152.188V170H310.719ZM350.531 128.531V166.062L338.5 146.25V128.531H350.531ZM370.969 170H365.438L357.156 161.719V145.094L365.438 136.812H370.969V170ZM373.156 156.688V150.906H380.438V145.094H373.156V136.812H384.875L393.156 145.094V156.688H373.156ZM373.156 170V162.25H391.719V165.844L387.594 170H373.156ZM434.75 136.812V170H420.938V136.812H434.75ZM412.594 161.719H418.75V165.844L414.75 170H407.094L398.781 161.719V136.812H412.594V161.719ZM463.156 145.094H457.281V141.469L461.906 136.812H470.281L477 144.562V153.156H463.156V145.094ZM441.25 170V136.812H455.062V170H441.25ZM518.25 161.719L509.969 170H500.719V162.25H504.156V145.094H500.719V136.812H509.969L518.25 145.094V161.719ZM494.938 162.25H498.531V170H489.25L480.969 161.719V145.094L489.25 136.812H498.531V145.094H494.938V162.25ZM564.719 170H550.031L524.906 128.531H539.5L564.719 170ZM524.906 170V132.469L536.938 152.188V170H524.906ZM564.719 128.531V166.062L552.688 146.25V128.531H564.719ZM585.156 170H579.625L571.344 161.719V145.094L579.625 136.812H585.156V170ZM587.344 156.688V150.906H594.625V145.094H587.344V136.812H599.062L607.344 145.094V156.688H587.344ZM587.344 170V162.25H605.906V165.844L601.781 170H587.344ZM623.938 136.812L646.031 170H631.688L609.562 136.812H623.938ZM629.344 141.406L631.688 136.812H646.031L636.469 152.125L629.344 141.406ZM623.938 170H609.562L618.781 154.188L626.188 165.344L623.938 170ZM684.562 136.812V170H670.75V136.812H684.562ZM662.406 161.719H668.562V165.844L664.562 170H656.906L648.594 161.719V136.812H662.406V161.719ZM711.062 170H698.812L691.062 162.25V124.156H704.875V161.719H711.062V170Z"
        fill="url(#paint1_linear_3_2)" />
    <defs>
        <linearGradient id="paint0_linear_3_2" x1="25.5" y1="55.9998" x2="943.5" y2="55.9999"
            gradientUnits="userSpaceOnUse">
            <stop stop-color="#6BE987" />
            <stop offset="1" stop-color="#3FA8E4" />
        </linearGradient>
        <linearGradient id="paint1_linear_3_2" x1="257.5" y1="152" x2="711.5" y2="152"
            gradientUnits="userSpaceOnUse">
            <stop stop-color="#6BE987" />
            <stop offset="1" stop-color="#3FA8E4" />
        </linearGradient>
    </defs>
</svg>