<svg width="100" height="100" viewBox="0 0 100 100" fill="none" xmlns="http://www.w3.org/2000/svg">
<rect width="100" height="100" rx="50" fill="url(#paint0_linear_5_12)"/>
<path d="M72.9354 37.9422C72.9729 38.4663 72.9729 38.9905 72.9729 39.5146C72.9729 55.5 60.806 73.9189 38.5686 73.9189C31.7177 73.9189 25.3535 71.9347 20 68.4906C20.9734 68.6029 21.9092 68.6403 22.9201 68.6403C28.5729 68.6403 33.7767 66.7311 37.9322 63.4741C32.6161 63.3618 28.1612 59.8802 26.6262 55.0883C27.375 55.2005 28.1237 55.2754 28.91 55.2754C29.9956 55.2754 31.0813 55.1256 32.0921 54.8637C26.5514 53.7405 22.3958 48.8738 22.3958 42.9962V42.8465C24.0056 43.745 25.8776 44.3065 27.8616 44.3813C24.6046 42.21 22.4707 38.5038 22.4707 34.3108C22.4707 32.0647 23.0696 30.0057 24.1179 28.2087C30.0704 35.5463 39.0178 40.3381 49.0507 40.8623C48.8636 39.9638 48.7512 39.028 48.7512 38.092C48.7512 31.4283 54.1421 26 60.8433 26C64.3248 26 67.4695 27.46 69.6783 29.8185C72.4111 29.2944 75.0317 28.2836 77.3528 26.8985C76.4542 29.7063 74.545 32.0648 72.0368 33.5622C74.4702 33.3002 76.8287 32.6262 79 31.6904C77.3531 34.0863 75.2939 36.2201 72.9354 37.9422Z" fill="white"/>
<defs>
<linearGradient id="paint0_linear_5_12" x1="0" y1="0" x2="100" y2="100" gradientUnits="userSpaceOnUse">
<stop stop-color="#6BE987"/>
<stop offset="1" stop-color="#3FA8E4"/>
</linearGradient>
</defs>
</svg>
